<svg xmlns="http://www.w3.org/2000/svg" viewBox="0 0 64 64">
  <defs>
    <linearGradient id="grad" x1="0%" y1="0%" x2="100%" y2="100%">
      <stop offset="0%" stop-color="#36c2ff" />
      <stop offset="100%" stop-color="#7c3aed" />
    </linearGradient>
  </defs>
  <rect width="64" height="64" rx="14" fill="#0f172a" />
  <path d="M40.5 18.8c-2.9-2-6-3-9.2-3-8.6 0-15.4 6.8-15.4 15.5s6.8 15.4 15.4 15.4c3.4 0 6.6-1.1 9.5-3.2 1.6-1.2 1.9-3.4.6-5-1.1-1.5-3.1-1.8-4.7-.7-1.7 1.2-3.6 1.9-5.6 1.9-4.7 0-8.6-4-8.6-8.4 0-4.7 3.8-8.6 8.6-8.6 2 0 3.8.6 5.5 1.9 1.6 1.1 3.7.9 4.9-.7 1.3-1.6.9-3.8-.6-5.1z" fill="url(#grad)" />
  <circle cx="43" cy="22" r="6" fill="#1f2937" opacity="0.85" />
  <circle cx="43" cy="22" r="3" fill="#36c2ff" />
</svg>
